<mxfile host="app.diagrams.net" agent="Mozilla/5.0 (Windows NT 10.0; Win64; x64) AppleWebKit/537.36 (KHTML, like Gecko) Chrome/133.0.0.0 Safari/537.36" version="26.0.10">
  <diagram name="Page-1" id="3rYDzs2dVjAPLgd_F1k2">
    <mxGraphModel dx="2261" dy="833" grid="1" gridSize="10" guides="1" tooltips="1" connect="1" arrows="1" fold="1" page="1" pageScale="1" pageWidth="827" pageHeight="1169" math="0" shadow="0">
      <root>
        <mxCell id="0" />
        <mxCell id="1" parent="0" />
        <mxCell id="fkSJeXLKvh7l4k-jM7Ce-8" value="" style="rounded=1;whiteSpace=wrap;html=1;strokeColor=#d79b00;dashed=1;fillColor=none;" vertex="1" parent="1">
          <mxGeometry x="40" y="300" width="200" height="480" as="geometry" />
        </mxCell>
        <mxCell id="fkSJeXLKvh7l4k-jM7Ce-9" value="&lt;b&gt;&lt;font style=&quot;font-size: 18px;&quot;&gt;BRONZE LAYER&lt;/font&gt;&lt;/b&gt;" style="rounded=1;whiteSpace=wrap;html=1;fillColor=#ffe6cc;strokeColor=#d79b00;" vertex="1" parent="1">
          <mxGeometry x="40" y="230" width="200" height="60" as="geometry" />
        </mxCell>
        <mxCell id="fkSJeXLKvh7l4k-jM7Ce-15" value="" style="group" vertex="1" connectable="0" parent="1">
          <mxGeometry x="60" y="340" width="160" height="180" as="geometry" />
        </mxCell>
        <mxCell id="fkSJeXLKvh7l4k-jM7Ce-11" value="&lt;font style=&quot;font-size: 14px;&quot;&gt;crm_sales_details&lt;/font&gt;" style="rounded=1;whiteSpace=wrap;html=1;fillColor=#ffe6cc;strokeColor=#d79b00;" vertex="1" parent="fkSJeXLKvh7l4k-jM7Ce-15">
          <mxGeometry width="160" height="40" as="geometry" />
        </mxCell>
        <mxCell id="fkSJeXLKvh7l4k-jM7Ce-12" value="&lt;font style=&quot;font-size: 14px;&quot;&gt;crm_cust_info&lt;/font&gt;" style="rounded=1;whiteSpace=wrap;html=1;fillColor=#ffe6cc;strokeColor=#d79b00;" vertex="1" parent="fkSJeXLKvh7l4k-jM7Ce-15">
          <mxGeometry y="70" width="160" height="40" as="geometry" />
        </mxCell>
        <mxCell id="fkSJeXLKvh7l4k-jM7Ce-13" value="&lt;font style=&quot;font-size: 14px;&quot;&gt;crm_prd_info&lt;/font&gt;" style="rounded=1;whiteSpace=wrap;html=1;fillColor=#ffe6cc;strokeColor=#d79b00;" vertex="1" parent="fkSJeXLKvh7l4k-jM7Ce-15">
          <mxGeometry y="140" width="160" height="40" as="geometry" />
        </mxCell>
        <mxCell id="fkSJeXLKvh7l4k-jM7Ce-16" style="edgeStyle=orthogonalEdgeStyle;rounded=0;orthogonalLoop=1;jettySize=auto;html=1;entryX=0;entryY=0.5;entryDx=0;entryDy=0;" edge="1" parent="1" source="fkSJeXLKvh7l4k-jM7Ce-3" target="fkSJeXLKvh7l4k-jM7Ce-11">
          <mxGeometry relative="1" as="geometry" />
        </mxCell>
        <mxCell id="fkSJeXLKvh7l4k-jM7Ce-17" style="edgeStyle=orthogonalEdgeStyle;rounded=0;orthogonalLoop=1;jettySize=auto;html=1;entryX=0;entryY=0.5;entryDx=0;entryDy=0;" edge="1" parent="1" source="fkSJeXLKvh7l4k-jM7Ce-3" target="fkSJeXLKvh7l4k-jM7Ce-12">
          <mxGeometry relative="1" as="geometry" />
        </mxCell>
        <mxCell id="fkSJeXLKvh7l4k-jM7Ce-18" style="edgeStyle=orthogonalEdgeStyle;rounded=0;orthogonalLoop=1;jettySize=auto;html=1;entryX=0;entryY=0.5;entryDx=0;entryDy=0;" edge="1" parent="1" source="fkSJeXLKvh7l4k-jM7Ce-3" target="fkSJeXLKvh7l4k-jM7Ce-13">
          <mxGeometry relative="1" as="geometry" />
        </mxCell>
        <mxCell id="fkSJeXLKvh7l4k-jM7Ce-19" value="" style="group" vertex="1" connectable="0" parent="1">
          <mxGeometry x="60" y="560" width="160" height="180" as="geometry" />
        </mxCell>
        <mxCell id="fkSJeXLKvh7l4k-jM7Ce-20" value="&lt;font style=&quot;font-size: 14px;&quot;&gt;erp_cust_az12&lt;/font&gt;" style="rounded=1;whiteSpace=wrap;html=1;fillColor=#ffe6cc;strokeColor=#d79b00;" vertex="1" parent="fkSJeXLKvh7l4k-jM7Ce-19">
          <mxGeometry width="160" height="40" as="geometry" />
        </mxCell>
        <mxCell id="fkSJeXLKvh7l4k-jM7Ce-21" value="&lt;font style=&quot;font-size: 14px;&quot;&gt;erp_loc_a101&lt;/font&gt;" style="rounded=1;whiteSpace=wrap;html=1;fillColor=#ffe6cc;strokeColor=#d79b00;" vertex="1" parent="fkSJeXLKvh7l4k-jM7Ce-19">
          <mxGeometry y="70" width="160" height="40" as="geometry" />
        </mxCell>
        <mxCell id="fkSJeXLKvh7l4k-jM7Ce-22" value="&lt;font style=&quot;font-size: 14px;&quot;&gt;erp_px_cat_g1v2&lt;/font&gt;" style="rounded=1;whiteSpace=wrap;html=1;fillColor=#ffe6cc;strokeColor=#d79b00;" vertex="1" parent="fkSJeXLKvh7l4k-jM7Ce-19">
          <mxGeometry y="140" width="160" height="40" as="geometry" />
        </mxCell>
        <mxCell id="fkSJeXLKvh7l4k-jM7Ce-23" style="edgeStyle=orthogonalEdgeStyle;rounded=0;orthogonalLoop=1;jettySize=auto;html=1;entryX=0;entryY=0.5;entryDx=0;entryDy=0;" edge="1" parent="1" source="fkSJeXLKvh7l4k-jM7Ce-4" target="fkSJeXLKvh7l4k-jM7Ce-20">
          <mxGeometry relative="1" as="geometry" />
        </mxCell>
        <mxCell id="fkSJeXLKvh7l4k-jM7Ce-24" style="edgeStyle=orthogonalEdgeStyle;rounded=0;orthogonalLoop=1;jettySize=auto;html=1;entryX=0;entryY=0.5;entryDx=0;entryDy=0;" edge="1" parent="1" source="fkSJeXLKvh7l4k-jM7Ce-4" target="fkSJeXLKvh7l4k-jM7Ce-21">
          <mxGeometry relative="1" as="geometry" />
        </mxCell>
        <mxCell id="fkSJeXLKvh7l4k-jM7Ce-25" style="edgeStyle=orthogonalEdgeStyle;rounded=0;orthogonalLoop=1;jettySize=auto;html=1;entryX=0;entryY=0.5;entryDx=0;entryDy=0;" edge="1" parent="1" source="fkSJeXLKvh7l4k-jM7Ce-4" target="fkSJeXLKvh7l4k-jM7Ce-22">
          <mxGeometry relative="1" as="geometry" />
        </mxCell>
        <mxCell id="fkSJeXLKvh7l4k-jM7Ce-1" value="" style="rounded=0;whiteSpace=wrap;html=1;fillColor=none;dashed=1;" vertex="1" parent="1">
          <mxGeometry x="-210" y="250.76923076923077" width="160" height="519.2307692307693" as="geometry" />
        </mxCell>
        <mxCell id="fkSJeXLKvh7l4k-jM7Ce-2" value="&lt;font style=&quot;font-size: 18px;&quot;&gt;Sources&lt;/font&gt;" style="rounded=0;whiteSpace=wrap;html=1;strokeColor=none;" vertex="1" parent="1">
          <mxGeometry x="-185" y="230" width="110" height="41.53846153846154" as="geometry" />
        </mxCell>
        <mxCell id="fkSJeXLKvh7l4k-jM7Ce-3" value="" style="image;aspect=fixed;html=1;points=[];align=center;fontSize=12;image=img/lib/azure2/general/Folder_Blank.svg;" vertex="1" parent="1">
          <mxGeometry x="-164.5" y="402" width="69" height="56.00000000000001" as="geometry" />
        </mxCell>
        <mxCell id="fkSJeXLKvh7l4k-jM7Ce-4" value="" style="image;aspect=fixed;html=1;points=[];align=center;fontSize=12;image=img/lib/azure2/general/Folder_Blank.svg;" vertex="1" parent="1">
          <mxGeometry x="-164.5" y="621.996923076923" width="69" height="56.00000000000001" as="geometry" />
        </mxCell>
        <mxCell id="fkSJeXLKvh7l4k-jM7Ce-5" value="CRM" style="text;html=1;align=center;verticalAlign=middle;whiteSpace=wrap;rounded=0;" vertex="1" parent="1">
          <mxGeometry x="-160" y="458.0038461538462" width="60" height="31.153846153846157" as="geometry" />
        </mxCell>
        <mxCell id="fkSJeXLKvh7l4k-jM7Ce-6" value="ERP" style="text;html=1;align=center;verticalAlign=middle;whiteSpace=wrap;rounded=0;" vertex="1" parent="1">
          <mxGeometry x="-160" y="678.0007692307693" width="60" height="31.153846153846157" as="geometry" />
        </mxCell>
      </root>
    </mxGraphModel>
  </diagram>
</mxfile>
